<svg
  xmlns="http://www.w3.org/2000/svg"
  viewBox="0 0 533.5 544.3"
  width="24"
  height="24"
>
  <path
    fill="#4285F4"
    d="M533.5 278.4c0-18.4-1.5-36-4.3-53.1H272v100.6h146.9c-6.3 34.1-25 62.9-53.3 82.1v68h86.2c50.5-46.5 81.7-115 81.7-197.6z"
  />
  <path
    fill="#34A853"
    d="M272 544.3c72.6 0 133.6-24 178.2-65.3l-86.2-68c-24 16.1-54.6 25.6-92 25.6-70.8 0-130.8-47.7-152.3-111.6H30.6v70.3C74.7 475.2 167.5 544.3 272 544.3z"
  />
  <path
    fill="#FBBC05"
    d="M119.7 325c-10.4-30.9-10.4-64.1 0-95l-89.1-70.3C-8.3 230.5-8.3 313.8 30.6 395.3l89.1-70.3z"
  />
  <path
    fill="#EA4335"
    d="M272 107.7c39.5-.6 77.7 14.4 106.7 41.9l79.6-79.6C406.2 24.7 341.1-1 272 0 167.5 0 74.7 69.1 30.6 149.7l89.1 70.3C141.2 155.4 201.2 107.7 272 107.7z"
  />
</svg>
